<svg id="Layer_1" data-name="Layer 1" xmlns="http://www.w3.org/2000/svg" viewBox="0 0 229.8 62.1"><path d="M77.23,24.65h-9L66.93,28H60.59l9-22.67h6.34l9,22.67H78.55Zm-1.75-4.42-2.74-7-2.74,7Z" fill="#f15a29"/><path d="M108.18,5.28V28h-5.64v-9H93.26v9H87.62V5.28h5.64v8.58h9.28V5.28Z" fill="#f15a29"/><path d="M112.86,5.28h5.65V15l8.41-9.67h6.7L125,14.92l9.27,13h-6.79l-6.37-9-2.61,2.8V28h-5.65Z" fill="#f15a29"/><path d="M144.54,5.28h6.11l3.46,14.16,4.72-14.16h6.08l4.68,14.16,3.47-14.16h6.11L172.6,28h-5.68l-5-14.35L156.82,28h-5.68Z" fill="#27aae1"/><path d="M192.23,22.38l3.3,3.33a10.61,10.61,0,0,1-7,2.64,8.77,8.77,0,0,1-9.17-9,8.58,8.58,0,0,1,8.91-8.87c5.41,0,8.58,4,8.58,10.46H184.67a3.81,3.81,0,0,0,3.7,2.87A6.21,6.21,0,0,0,192.23,22.38Zm-7.49-4.82h6.93a3.33,3.33,0,0,0-3.3-2.58A3.79,3.79,0,0,0,184.74,17.56Z" fill="#27aae1"/><path d="M219.16,19.41c0,5.24-3.24,8.94-7.82,8.94a7.14,7.14,0,0,1-5.58-2.57V28h-5.61V4.88h5.61v8.19a7.11,7.11,0,0,1,5.58-2.57C215.92,10.5,219.16,14.19,219.16,19.41Zm-5.38,0a4,4,0,0,0-4.13-4.26c-2.31,0-3.89,1.78-3.89,4.26s1.58,4.29,3.89,4.29A4.06,4.06,0,0,0,213.78,19.41Z" fill="#27aae1"/><path d="M53.23,57.69l7.71-1.64L61,48.52C62.94,50.43,67.75,57,70.92,57c3.5,0,5.28-1.91,5.28-4,0-2.41-2.14-3.36-6.1-4.29-4.56-1-7.43-2.47-7.43-6.4,0-3.63,3.24-6.47,7.59-6.47a11.28,11.28,0,0,1,8,3.24l-1.59,2a9.39,9.39,0,0,0-6.5-2.9c-2.8,0-4.85,1.84-4.85,3.92,0,2.35,2.24,3.17,6.1,4.1,4.33,1,7.43,2.57,7.43,6.56,0,3.6-2.71,6.54-8,6.54C67.09,59.32,55.5,59.94,53.23,57.69Z" fill="#27aae1"/><path d="M84.75,50.41a9,9,0,1,1,9,8.94A9.06,9.06,0,0,1,84.75,50.41Zm14.69,0a5.72,5.72,0,1,0-5.68,6.1A6,6,0,0,0,99.44,50.41Z" fill="#27aae1"/><path d="M108,35.88h3.24V59H108Z" fill="#27aae1"/><path d="M132.5,41.89V59h-3.27V56.48a6.37,6.37,0,0,1-5.41,2.87,6.24,6.24,0,0,1-6.4-6.6V41.89h3.2v10.3c0,2.54,1.62,4.32,3.93,4.32S129,55,129.23,53V41.89Z" fill="#27aae1"/><path d="M147.91,58.13a5.48,5.48,0,0,1-3.4,1.22A4.38,4.38,0,0,1,140,54.7v-10h-2.57V41.89H140V37.2h3.2v4.69h4v2.77h-4v9.81a1.89,1.89,0,0,0,1.75,2,2.55,2.55,0,0,0,1.75-.62Z" fill="#27aae1"/><path d="M152.36,37.07a2,2,0,0,1,3.93,0,2,2,0,1,1-3.93,0Zm.33,4.82H156V59h-3.27Z" fill="#27aae1"/><path d="M161.24,50.41a9,9,0,1,1,9,8.94A9.06,9.06,0,0,1,161.24,50.41Zm14.69,0a5.72,5.72,0,1,0-5.68,6.1A6,6,0,0,0,175.93,50.41Z" fill="#27aae1"/><path d="M199.59,48.1V59h-3.2V48.66c0-2.54-1.62-4.33-3.93-4.33a4.55,4.55,0,0,0-4.69,3.57V59h-3.26V41.89h3.26v2.48a6.37,6.37,0,0,1,5.42-2.87A6.23,6.23,0,0,1,199.59,48.1Z" fill="#27aae1"/><path d="M204.64,56.81l1.55-2.34A9.81,9.81,0,0,0,212,56.55c1.92,0,3.24-.9,3.24-2.22,0-1.58-1.75-2.08-3.86-2.67-3.93-1.09-5.88-2.21-5.88-5,0-3.14,2.58-5.18,6.21-5.18a11.59,11.59,0,0,1,6.3,2l-1.45,2.41a9.51,9.51,0,0,0-4.85-1.59c-1.69,0-3,.73-3,2s1.06,1.72,3.93,2.61,5.81,1.75,5.81,5.15c0,3.23-2.74,5.28-6.47,5.28A11.92,11.92,0,0,1,204.64,56.81Z" fill="#27aae1"/><path d="M37.87,4.89l7.27,4.23c.6.36,1.2.71,1.8,1.08a2.28,2.28,0,0,1,1,3c-.67,1.76-1.35,3.5-2,5.25a.74.74,0,0,0,.06.73c.54.9,1,1.82,1.57,2.72a.88.88,0,0,0,.53.4c1.72.28,3.44.55,5.17.78a2.35,2.35,0,0,1,2.3,2.55v9.69a2.34,2.34,0,0,1-2.25,2.54l-3.7.54a1.08,1.08,0,1,1-.35-2.12c1.16-.18,2.33-.36,3.5-.5.48-.05.69-.19.68-.73,0-3.05,0-6.09,0-9.14,0-.53-.21-.67-.67-.74-1.91-.26-3.82-.55-5.72-.81a1.49,1.49,0,0,1-1.17-.89c-.64-1.24-1.33-2.45-2-3.64a1.52,1.52,0,0,1-.16-1.5c.75-1.86,1.46-3.74,2.21-5.6.15-.39.13-.61-.27-.84-2.6-1.52-5.18-3.06-7.77-4.6l-.38-.22-2.38,3c-.57.71-1.14,1.43-1.7,2.15a1.37,1.37,0,0,1-1.25.57c-1.41,0-2.82-.05-4.23,0a1.51,1.51,0,0,1-1.36-.65C25.37,10.59,24.18,9.05,23,7.5l-.32-.41-1.35.78c-2.3,1.33-4.6,2.68-6.91,4-.45.25-.48.48-.31.91.74,1.85,1.45,3.71,2.2,5.56a1.53,1.53,0,0,1-.17,1.49c-.72,1.18-1.4,2.37-2,3.6a1.53,1.53,0,0,1-1.23.94c-1.91.26-3.82.56-5.73.81-.45.06-.61.23-.6.69q0,4.62,0,9.24c0,.45.16.61.57.67,1.91.26,3.82.55,5.73.81a1.53,1.53,0,0,1,1.25.92c.63,1.22,1.31,2.42,2,3.6a1.55,1.55,0,0,1,.18,1.54c-.76,1.86-1.46,3.74-2.21,5.6a.56.56,0,0,0,.29.83c2.57,1.5,5.12,3,7.68,4.55l.45.26,3.17-4,1-1.26a1.2,1.2,0,0,1,1-.48c1.52,0,3,0,4.54,0a1.34,1.34,0,0,1,1.17.63L37,53.45l.31.39,2-1.06c.22-.11.43-.24.66-.34A1.06,1.06,0,1,1,41,54.27c-.84.53-1.69,1.06-2.58,1.52a2.21,2.21,0,0,1-2.88-.72q-1.66-2.18-3.32-4.37a.78.78,0,0,0-.74-.36q-1.47,0-2.94,0a.78.78,0,0,0-.74.35c-1.07,1.43-2.15,2.84-3.23,4.26a2.32,2.32,0,0,1-3.33.66l-8.1-4.82A2.34,2.34,0,0,1,12,47.6c.66-1.7,1.32-3.4,2-5.1a.76.76,0,0,0-.08-.77c-.53-.9-1-1.83-1.56-2.72a.84.84,0,0,0-.5-.37c-1.64-.27-3.28-.56-4.93-.73A2.76,2.76,0,0,1,4.4,36.06V24.87A2.78,2.78,0,0,1,7,23c1.67-.18,3.32-.47,5-.74a.71.71,0,0,0,.43-.31c.54-.92,1-1.86,1.59-2.77a.83.83,0,0,0,.07-.82c-.69-1.69-1.35-3.39-2-5.09a2.33,2.33,0,0,1,.9-3C16,8.46,19,6.68,22.08,4.89h1a3.78,3.78,0,0,1,1.78,1.5c1,1.3,2,2.57,2.92,3.86a.73.73,0,0,0,.7.34c1,0,2,0,3,0a.73.73,0,0,0,.7-.34c1-1.29,2-2.55,2.92-3.85a3.84,3.84,0,0,1,1.78-1.51Z" fill="#f15a29"/><path d="M62.71,53a6.08,6.08,0,0,1-10,4.28,8.81,8.81,0,0,1-.71-.66q-7-7-14-14a1,1,0,0,0-1-.3,11.53,11.53,0,0,1-12.55-6.53,12.26,12.26,0,0,1-1-5.1c0-1.36.94-1.88,2.1-1.19,1.89,1.12,3.78,2.25,5.65,3.4a.65.65,0,0,0,.78,0,6.33,6.33,0,0,0,2.92-4.18.7.7,0,0,0-.41-.86c-2.07-1.21-4.12-2.46-6.17-3.69-1.26-.76-1.32-1.59-.13-2.44a10.72,10.72,0,0,1,9.61-1.87,11.92,11.92,0,0,1,6.08,4.32,11.52,11.52,0,0,1,2.54,5.24,12.69,12.69,0,0,1,.16,2.05,5.71,5.71,0,0,0,1.68,4.15c2.13,2.19,4.3,4.33,6.46,6.49l6.12,6.12A6.35,6.35,0,0,1,62.71,53ZM25.87,32.48a8.84,8.84,0,0,0,2.58,5.07,8.67,8.67,0,0,0,8.64,2.38,2,2,0,0,1,2.13.61Q46.42,47.82,53.68,55a8.8,8.8,0,0,0,.72.65A3.72,3.72,0,0,0,60.14,54a3.78,3.78,0,0,0-1.09-4.13q-6-6-12.07-12.06A8.81,8.81,0,0,1,44.17,31,6.3,6.3,0,0,0,44,29.49a10.09,10.09,0,0,0-2.83-4.77A8.25,8.25,0,0,0,33,22.05a24.23,24.23,0,0,0-2.38.82l.64.39c1.77,1,3.53,2.12,5.29,3.17a1.24,1.24,0,0,1,.76,1.09,8,8,0,0,1-.07,1.3,8.7,8.7,0,0,1-4.6,6.44,1.88,1.88,0,0,1-2.15,0C29,34.29,27.45,33.42,25.87,32.48Z" fill="#27aae1"/></svg>